<svg width="37" height="37" viewBox="0 0 37 37" fill="none" xmlns="http://www.w3.org/2000/svg">
<path fill-rule="evenodd" clip-rule="evenodd" d="M18.5 37C28.7173 37 37 28.7173 37 18.5C37 8.28273 28.7173 0 18.5 0C8.28273 0 0 8.28273 0 18.5C0 28.7173 8.28273 37 18.5 37ZM9.30084 15.6737L17.6071 7.36765C17.8446 7.12979 18.1623 6.99928 18.501 7.00002C18.8385 6.99909 19.156 7.12979 19.3938 7.36746L27.6999 15.6736C27.937 15.9107 28.0679 16.2267 28.0679 16.5636C28.0679 16.901 27.9387 17.2168 27.7016 17.4539L26.9497 18.208C26.7128 18.4449 26.4007 18.5755 26.064 18.5755C25.7268 18.5755 25.4192 18.4449 25.1821 18.208L20.2987 13.3076V28.7575C20.2987 29.4516 19.7005 30 19.0062 30H17.9398C17.2455 30 16.7021 29.4516 16.7021 28.7575V13.3626L11.8458 18.2082C11.6091 18.4451 11.2822 18.5756 10.9452 18.5756C10.6081 18.5756 10.2919 18.4451 10.0552 18.2082L9.30084 17.4541C9.06393 17.217 8.93359 16.9012 8.93359 16.5638C8.93359 16.2269 9.06374 15.9109 9.30084 15.6737Z" fill="#F2EDF6"/>
</svg>
