<svg width="70" height="70" viewBox="0 0 70 70" fill="none" xmlns="http://www.w3.org/2000/svg">
<path d="M59.7599 10.2407C46.1035 -3.41283 23.8943 -3.41283 10.2379 10.2407C-3.41263 23.8942 -3.41263 46.1091 10.2379 59.7627C17.0661 66.588 26.0332 69.9991 35.0004 69.9991C43.9676 69.9991 52.9317 66.5879 59.7599 59.7627C73.4134 46.1093 73.4134 23.8942 59.7599 10.2407ZM49.4416 45.3184C50.5825 46.4593 50.5825 48.3035 49.4416 49.4444C48.8726 50.0135 48.1256 50.2995 47.3785 50.2995C46.6316 50.2995 45.8845 50.0135 45.3154 49.4444L35.0002 39.1262L24.6879 49.4414C24.116 50.0104 23.3689 50.2965 22.6248 50.2965C21.8778 50.2965 21.1307 50.0104 20.5617 49.4414C19.4208 48.3005 19.4208 46.4534 20.5617 45.3154L30.8741 35.0002L20.5588 24.685C19.4179 23.5441 19.4179 21.6969 20.5588 20.5589C21.6969 19.418 23.544 19.418 24.6849 20.5589L35.0001 30.8741L45.3153 20.5589C46.4562 19.418 48.3005 19.418 49.4414 20.5589C50.5823 21.6969 50.5823 23.5441 49.4414 24.685L39.1262 35.0002L49.4416 45.3184Z" fill="white"/>
</svg>
