<svg width="58" height="58" viewBox="0 0 58 58" fill="none" xmlns="http://www.w3.org/2000/svg">
<path d="M53.2263 5.22094H10.4418C10.3129 5.22094 10.1953 5.2694 10.0746 5.30574L9.02296 1.85003C8.68854 0.751076 7.67486 0 6.5261 0H1.30527C0.584416 0 0 0.584415 0 1.30527V3.91568C0 4.63653 0.584416 5.22094 1.30527 5.22094H4.59261L12.7478 32.0201L9.70197 35.5734C8.49814 36.9778 7.95606 38.9129 8.51013 40.6776C9.21874 42.9346 11.2107 44.3776 13.5074 44.3776H50.9039C51.6248 44.3776 52.2092 43.7932 52.2092 43.0723V40.4619C52.2092 39.741 51.6248 39.1566 50.9039 39.1566H13.5073L17.6448 34.3296C17.7488 34.2082 17.8253 34.0711 17.9042 33.9357H43.1975C45.2205 33.9357 47.0615 32.7673 47.923 30.9369L57.0311 11.5824C57.2923 11.0254 57.43 10.4073 57.43 9.79408V9.42442C57.43 7.10303 55.5479 5.22094 53.2263 5.22094Z" fill="#460B79"/>
<path d="M15.6614 57.4302C18.5448 57.4302 20.8823 55.0927 20.8823 52.2092C20.8823 49.3258 18.5448 46.9883 15.6614 46.9883C12.7779 46.9883 10.4404 49.3258 10.4404 52.2092C10.4404 55.0927 12.7779 57.4302 15.6614 57.4302Z" fill="#460B79"/>
<path d="M46.9876 57.4302C49.871 57.4302 52.2085 55.0927 52.2085 52.2092C52.2085 49.3258 49.871 46.9883 46.9876 46.9883C44.1041 46.9883 41.7666 49.3258 41.7666 52.2092C41.7666 55.0927 44.1041 57.4302 46.9876 57.4302Z" fill="#460B79"/>
</svg>
