<svg width="63" height="63" viewBox="0 0 63 63" fill="none" xmlns="http://www.w3.org/2000/svg">
<path d="M57.925 5.68185H11.3636C11.2233 5.68185 11.0954 5.73459 10.9639 5.77414L9.8195 2.01336C9.45555 0.817382 8.35239 0 7.10222 0H1.4205C0.636008 0 0 0.636008 0 1.4205V4.26136C0 5.04585 0.636008 5.68185 1.4205 5.68185H4.99804L13.8731 34.8469L10.5584 38.7139C9.24834 40.2423 8.65841 42.3482 9.26139 44.2687C10.0326 46.725 12.2004 48.2953 14.6998 48.2953H55.3976C56.1821 48.2953 56.8181 47.6593 56.8181 46.8748V44.0339C56.8181 43.2494 56.1821 42.6134 55.3976 42.6134H14.6997L19.2025 37.3603C19.3157 37.2281 19.3989 37.079 19.4848 36.9316H47.0109C49.2126 36.9316 51.2161 35.6601 52.1536 33.6681L62.0657 12.605C62.35 11.9988 62.4999 11.326 62.4999 10.6587V10.2564C62.4999 7.7301 60.4516 5.68185 57.925 5.68185Z" fill="white"/>
<path d="M17.0451 62.5001C20.1831 62.5001 22.727 59.9562 22.727 56.8182C22.727 53.6802 20.1831 51.1364 17.0451 51.1364C13.9071 51.1364 11.3633 53.6802 11.3633 56.8182C11.3633 59.9562 13.9071 62.5001 17.0451 62.5001Z" fill="white"/>
<path d="M51.135 62.5001C54.273 62.5001 56.8168 59.9562 56.8168 56.8182C56.8168 53.6802 54.273 51.1364 51.135 51.1364C47.997 51.1364 45.4531 53.6802 45.4531 56.8182C45.4531 59.9562 47.997 62.5001 51.135 62.5001Z" fill="white"/>
</svg>
