<svg width="30" height="31" viewBox="0 0 30 31" fill="none" xmlns="http://www.w3.org/2000/svg">
<path d="M27.8041 3.6732H5.45453C5.38722 3.6732 5.32579 3.69851 5.2627 3.7175L4.71337 1.91233C4.53867 1.33826 4.00916 0.945923 3.40907 0.945923H0.68184C0.305284 0.945923 0 1.25121 0 1.62776V2.99137C0 3.36792 0.305284 3.6732 0.68184 3.6732H2.39906L6.65911 17.6723L5.06806 19.5285C4.43921 20.2621 4.15605 21.273 4.44548 22.1948C4.81564 23.3738 5.8562 24.1276 7.05593 24.1276H26.5909C26.9675 24.1276 27.2728 23.8223 27.2728 23.4457V22.0821C27.2728 21.7056 26.9675 21.4003 26.5909 21.4003H7.05586L9.21721 18.8788C9.27154 18.8154 9.31149 18.7438 9.35272 18.673H22.5653C23.6221 18.673 24.5838 18.0627 25.0338 17.1065L29.7916 6.99628C29.9281 6.70532 30 6.38239 30 6.06209V5.86898C30 4.65636 29.0168 3.6732 27.8041 3.6732Z" fill="white"/>
<path d="M8.18237 30.9458C9.68862 30.9458 10.9097 29.7247 10.9097 28.2185C10.9097 26.7123 9.68862 25.4912 8.18237 25.4912C6.67613 25.4912 5.45508 26.7123 5.45508 28.2185C5.45508 29.7247 6.67613 30.9458 8.18237 30.9458Z" fill="white"/>
<path d="M24.5437 30.9458C26.0499 30.9458 27.271 29.7247 27.271 28.2185C27.271 26.7123 26.0499 25.4912 24.5437 25.4912C23.0375 25.4912 21.8164 26.7123 21.8164 28.2185C21.8164 29.7247 23.0375 30.9458 24.5437 30.9458Z" fill="white"/>
</svg>
