<svg width="47" height="63" viewBox="0 0 47 63" fill="none" xmlns="http://www.w3.org/2000/svg">
<path d="M5.46717 59.4859C5.53771 61.1705 6.92394 62.5 8.60975 62.5H37.9731C39.6589 62.5 41.0452 61.1705 41.1157 59.4859L43.2126 15.2191H3.37024L5.46717 59.4859ZM29.9338 26.2142C29.9338 25.5089 30.5057 24.9368 31.2114 24.9368H33.2547C33.9599 24.9368 34.5323 25.5087 34.5323 26.2142V51.5049C34.5323 52.2104 33.9604 52.7823 33.2547 52.7823H31.2114C30.506 52.7823 29.9338 52.2107 29.9338 51.5049V26.2142ZM20.9923 26.2142C20.9923 25.5089 21.5642 24.9368 22.2697 24.9368H24.3131C25.0183 24.9368 25.5906 25.5087 25.5906 26.2142V51.5049C25.5906 52.2104 25.0188 52.7823 24.3131 52.7823H22.2697C21.5644 52.7823 20.9923 52.2107 20.9923 51.5049V26.2142ZM12.0505 26.2142C12.0505 25.5089 12.6225 24.9368 13.328 24.9368H15.3715C16.0769 24.9368 16.6489 25.5087 16.6489 26.2142V51.5049C16.6489 52.2104 16.077 52.7823 15.3715 52.7823H13.328C12.6226 52.7823 12.0505 52.2107 12.0505 51.5049V26.2142Z" fill="white"/>
<path d="M44.6088 3.21969H31.0625V0.658687C31.0625 0.294994 30.7677 0 30.4038 0H16.1788C15.8151 0 15.5202 0.294994 15.5202 0.658687V3.21953H1.97377C0.883605 3.21953 0 4.10329 0 5.19345V11.3943H46.5826V5.19361C46.5826 4.10344 45.699 3.21969 44.6088 3.21969Z" fill="white"/>
</svg>
