<svg xmlns="http://www.w3.org/2000/svg" xmlns:xlink="http://www.w3.org/1999/xlink" version="1.1" x="0px" y="0px" viewBox="0 0 90 112.5" enable-background="new 0 0 90 90" xml:space="preserve"><path d="M84.891,62.598H5.107c-1.206,0-2.181,0.978-2.181,2.184c0,1.205,0.976,2.181,2.181,2.181h2.327  c0.861,3.506,4,6.113,7.77,6.113h59.589c3.771,0,6.908-2.607,7.77-6.113h2.328c1.203,0,2.185-0.976,2.185-2.181  C87.075,63.575,86.094,62.598,84.891,62.598z"/><g><g><circle cx="45" cy="20.852" r="3.926"/></g></g><g><path d="M16.74,54.74c0.334-0.879,0.74-1.809,1.206-2.771c0.425-0.975,1.016-1.944,1.549-2.959   c0.625-0.979,1.209-2.012,1.933-2.981c0.716-0.973,1.422-1.956,2.254-2.854c0.403-0.452,0.79-0.916,1.205-1.351   c0.437-0.413,0.869-0.827,1.3-1.236c0.821-0.844,1.771-1.528,2.644-2.213c0.844-0.714,1.796-1.233,2.642-1.772   c0.832-0.558,1.681-0.976,2.474-1.337c0.792-0.358,1.475-0.74,2.137-0.97c0.658-0.227,1.23-0.423,1.703-0.585   c0.932-0.318,1.464-0.498,1.464-0.498s-0.459,0.325-1.262,0.9c-0.394,0.283-0.874,0.628-1.424,1.021   c-0.545,0.394-1.083,0.952-1.702,1.488c-0.617,0.539-1.265,1.139-1.858,1.865c-0.606,0.708-1.291,1.387-1.84,2.24   c-0.573,0.822-1.198,1.622-1.677,2.552c-0.256,0.449-0.512,0.896-0.77,1.35c-0.237,0.464-0.438,0.951-0.656,1.419   c-0.461,0.924-0.792,1.917-1.131,2.863c-0.344,0.943-0.559,1.93-0.819,2.839c-0.176,0.95-0.416,1.827-0.513,2.697   c-0.138,0.856-0.23,1.668-0.282,2.42c-0.062,0.75-0.093,1.435-0.103,2.032h57.413c-2.916-18.157-18.65-32.03-37.629-32.03   c-18.978,0-34.712,13.873-37.625,32.032h7.98C15.644,57.811,16.085,56.38,16.74,54.74z"/></g></svg>