<?xml version="1.0" encoding="UTF-8" standalone="no"?>
<!DOCTYPE svg PUBLIC "-//W3C//DTD SVG 1.1//EN" "http://www.w3.org/Graphics/SVG/1.1/DTD/svg11.dtd">
<svg version="1.1" xmlns="http://www.w3.org/2000/svg" xmlns:xlink="http://www.w3.org/1999/xlink" preserveAspectRatio="xMidYMid meet" viewBox="136.58241758241752 217.35164835164832 70.59340659340654 24" width="66.59" height="20"><defs><path d="M157.58 228.35C157.58 233.87 153.1 238.35 147.58 238.35C142.06 238.35 137.58 233.87 137.58 228.35C137.58 222.83 142.06 218.35 147.58 218.35C153.1 218.35 157.58 222.83 157.58 228.35Z" id="a1xeG6Cqkf"></path><linearGradient id="gradientb2CYdvzbrF" gradientUnits="userSpaceOnUse" x1="147.58" y1="218.35" x2="147.58" y2="238.35"><stop style="stop-color: #88267f;stop-opacity: 1" offset="0%"></stop><stop style="stop-color: #010000;stop-opacity: 1" offset="100%"></stop></linearGradient><path d="M180.88 228.35C180.88 233.87 176.4 238.35 170.88 238.35C165.36 238.35 160.88 233.87 160.88 228.35C160.88 222.83 165.36 218.35 170.88 218.35C176.4 218.35 180.88 222.83 180.88 228.35Z" id="h6y2FxOB5u"></path><linearGradient id="gradienta9uy55ByLI" gradientUnits="userSpaceOnUse" x1="170.88" y1="218.35" x2="170.88" y2="238.35"><stop style="stop-color: #88267f;stop-opacity: 1" offset="0%"></stop><stop style="stop-color: #010000;stop-opacity: 1" offset="100%"></stop></linearGradient><path d="M204.18 228.35C204.18 233.87 199.69 238.35 194.18 238.35C188.66 238.35 184.18 233.87 184.18 228.35C184.18 222.83 188.66 218.35 194.18 218.35C199.69 218.35 204.18 222.83 204.18 228.35Z" id="a5w4NRE0g"></path><linearGradient id="gradientb2hfdzhaOc" gradientUnits="userSpaceOnUse" x1="194.18" y1="218.35" x2="194.18" y2="238.35"><stop style="stop-color: #88267f;stop-opacity: 1" offset="0%"></stop><stop style="stop-color: #010000;stop-opacity: 1" offset="100%"></stop></linearGradient></defs><g><g><use xlink:href="#a1xeG6Cqkf" opacity="1" fill="url(#gradientb2CYdvzbrF)"></use></g><g><use xlink:href="#h6y2FxOB5u" opacity="1" fill="url(#gradienta9uy55ByLI)"></use></g><g><use xlink:href="#a5w4NRE0g" opacity="1" fill="url(#gradientb2hfdzhaOc)"></use></g></g></svg>