<svg width="50" height="50" viewBox="0 0 50 50" fill="none" xmlns="http://www.w3.org/2000/svg">
<g clip-path="url(#clip0)">
<path d="M46.5908 20.4545H29.5453V3.40909C29.5453 1.52727 28.018 0 26.1362 0H23.8636C21.9818 0 20.4545 1.52727 20.4545 3.40909V20.4545H3.40909C1.52727 20.4545 0 21.9818 0 23.8636V26.1362C0 28.018 1.52727 29.5453 3.40909 29.5453H20.4545V46.5908C20.4545 48.4726 21.9818 49.9999 23.8636 49.9999H26.1362C28.018 49.9999 29.5453 48.4726 29.5453 46.5908V29.5453H46.5908C48.4726 29.5453 49.9999 28.018 49.9999 26.1362V23.8636C49.9999 21.9818 48.4726 20.4545 46.5908 20.4545V20.4545Z" fill="white"/>
</g>
<defs>
<clipPath id="clip0">
<rect width="50" height="50" fill="white"/>
</clipPath>
</defs>
</svg>
