<svg width="39" height="50" viewBox="0 0 39 50" fill="none" xmlns="http://www.w3.org/2000/svg">
<path d="M19.015 24.4533C24.5741 24.4533 29.0811 18.9793 29.0811 12.2267C29.0811 5.474 27.6014 0 19.015 0C10.4285 0 8.94855 5.474 8.94855 12.2267C8.94855 18.9793 13.4555 24.4533 19.015 24.4533Z" fill="white"/>
<path d="M0.00197949 43.1218C0.000265201 42.7101 -0.00144908 43.0058 0.00197949 43.1218V43.1218Z" fill="white"/>
<path d="M38.0271 43.4434C38.0326 43.3307 38.029 42.6614 38.0271 43.4434V43.4434Z" fill="white"/>
<path d="M38.0057 42.6281C37.8193 30.865 36.283 27.5131 24.5268 25.3914C24.5268 25.3914 22.872 27.5001 19.0148 27.5001C15.1577 27.5001 13.5025 25.3914 13.5025 25.3914C1.87469 27.49 0.244974 30.7921 0.0306882 42.246C0.0131167 43.1813 0.00497391 43.2304 0.00183105 43.1219C0.00254534 43.3253 0.00340217 43.7016 0.00340217 44.3577C0.00340217 44.3577 2.80226 50 19.0148 50C35.2271 50 38.0263 44.3577 38.0263 44.3577C38.0263 43.9361 38.0266 43.643 38.027 43.4436C38.0238 43.5107 38.0175 43.3806 38.0057 42.6281Z" fill="white"/>
</svg>
