<svg width="42" height="50" viewBox="0 0 42 50" fill="none" xmlns="http://www.w3.org/2000/svg">
<path d="M20.6251 24.4533C26.6551 24.4533 31.5438 18.9793 31.5438 12.2267C31.5438 5.474 29.9387 0 20.6251 0C11.3114 0 9.70605 5.474 9.70605 12.2267C9.70605 18.9793 14.5948 24.4533 20.6251 24.4533Z" fill="#460B79"/>
<path d="M0.00244372 43.1212C0.000327397 42.7105 -0.00178893 43.0055 0.00244372 43.1212V43.1212Z" fill="#460B79"/>
<path d="M41.248 43.4433C41.2544 43.3306 41.2502 42.6613 41.248 43.4433V43.4433Z" fill="#460B79"/>
<path d="M41.2246 42.6283C41.0224 30.8652 39.356 27.5133 26.6041 25.3916C26.6041 25.3916 24.8091 27.5003 20.6253 27.5003C16.4415 27.5003 14.6461 25.3916 14.6461 25.3916C2.03343 27.4902 0.265689 30.7923 0.0332543 42.2462C0.0141946 43.1815 0.00536217 43.2306 0.00195312 43.122C0.00272791 43.3255 0.0036573 43.7017 0.0036573 44.3579C0.0036573 44.3579 3.03957 50.0002 20.6253 50.0002C38.2107 50.0002 41.2469 44.3579 41.2469 44.3579C41.2469 43.9363 41.2472 43.6432 41.2477 43.4437C41.2443 43.5109 41.2375 43.3807 41.2246 42.6283Z" fill="#460B79"/>
</svg>
