<svg width="48" height="28" viewBox="0 0 48 28" fill="none" xmlns="http://www.w3.org/2000/svg">
<path d="M8.33203 10.7324C8.33203 10.4316 8.22461 10.1973 8.00977 10.0293C7.79883 9.86133 7.42578 9.6875 6.89062 9.50781C6.35547 9.32812 5.91797 9.1543 5.57812 8.98633C4.47266 8.44336 3.91992 7.69727 3.91992 6.74805C3.91992 6.27539 4.05664 5.85938 4.33008 5.5C4.60742 5.13672 4.99805 4.85547 5.50195 4.65625C6.00586 4.45312 6.57227 4.35156 7.20117 4.35156C7.81445 4.35156 8.36328 4.46094 8.84766 4.67969C9.33594 4.89844 9.71484 5.21094 9.98438 5.61719C10.2539 6.01953 10.3887 6.48047 10.3887 7H8.33789C8.33789 6.65234 8.23047 6.38281 8.01562 6.19141C7.80469 6 7.51758 5.9043 7.1543 5.9043C6.78711 5.9043 6.49609 5.98633 6.28125 6.15039C6.07031 6.31055 5.96484 6.51562 5.96484 6.76562C5.96484 6.98438 6.08203 7.18359 6.31641 7.36328C6.55078 7.53906 6.96289 7.72266 7.55273 7.91406C8.14258 8.10156 8.62695 8.30469 9.00586 8.52344C9.92773 9.05469 10.3887 9.78711 10.3887 10.7207C10.3887 11.4668 10.1074 12.0527 9.54492 12.4785C8.98242 12.9043 8.21094 13.1172 7.23047 13.1172C6.53906 13.1172 5.91211 12.9941 5.34961 12.748C4.79102 12.498 4.36914 12.1582 4.08398 11.7285C3.80273 11.2949 3.66211 10.7969 3.66211 10.2344H5.72461C5.72461 10.6914 5.8418 11.0293 6.07617 11.248C6.31445 11.4629 6.69922 11.5703 7.23047 11.5703C7.57031 11.5703 7.83789 11.498 8.0332 11.3535C8.23242 11.2051 8.33203 10.998 8.33203 10.7324ZM14.1445 4.46875L16.0488 10.4043L17.9473 4.46875H20.6543V13H18.5918V11.0078L18.791 6.92969L16.7285 13H15.3691L13.3008 6.92383L13.5 11.0078V13H11.4434V4.46875H14.1445ZM26.918 11.4062H24.0996L23.6074 13H21.4102L24.5391 4.46875H26.4727L29.625 13H27.416L26.918 11.4062ZM24.5918 9.81836H26.4258L25.5059 6.85938L24.5918 9.81836ZM33.4219 9.98828H32.3086V13H30.252V4.46875H33.6094C34.6211 4.46875 35.4121 4.69336 35.9824 5.14258C36.5527 5.5918 36.8379 6.22656 36.8379 7.04688C36.8379 7.64062 36.7168 8.13281 36.4746 8.52344C36.2363 8.91406 35.8613 9.23047 35.3496 9.47266L37.1309 12.9121V13H34.9277L33.4219 9.98828ZM32.3086 8.40039H33.6094C34 8.40039 34.293 8.29883 34.4883 8.0957C34.6875 7.88867 34.7871 7.60156 34.7871 7.23438C34.7871 6.86719 34.6875 6.58008 34.4883 6.37305C34.2891 6.16211 33.9961 6.05664 33.6094 6.05664H32.3086V8.40039ZM44.4844 6.05664H41.9238V13H39.8672V6.05664H37.3535V4.46875H44.4844V6.05664Z" fill="black"/>
<path d="M13.2723 20.6016H9.95586V24H7.89922V15.4688H13.6063V17.0566H9.95586V19.0195H13.2723V20.6016ZM22.8863 19.9102C22.8863 20.7422 22.732 21.4785 22.4234 22.1191C22.1148 22.7598 21.6754 23.2539 21.1051 23.6016C20.5387 23.9453 19.8922 24.1172 19.1656 24.1172C18.4391 24.1172 17.7945 23.9512 17.232 23.6191C16.6695 23.2832 16.2301 22.8047 15.9137 22.1836C15.6012 21.5625 15.4371 20.8496 15.4215 20.0449V19.5645C15.4215 18.7285 15.5738 17.9922 15.8785 17.3555C16.1871 16.7148 16.6266 16.2207 17.1969 15.873C17.7711 15.5254 18.4234 15.3516 19.1539 15.3516C19.8766 15.3516 20.5211 15.5234 21.0875 15.8672C21.6539 16.2109 22.0934 16.7012 22.4059 17.3379C22.7223 17.9707 22.8824 18.6973 22.8863 19.5176V19.9102ZM20.7945 19.5527C20.7945 18.7051 20.652 18.0625 20.3668 17.625C20.0855 17.1836 19.6813 16.9629 19.1539 16.9629C18.1227 16.9629 17.5777 17.7363 17.5191 19.2832L17.5133 19.9102C17.5133 20.7461 17.652 21.3887 17.9293 21.8379C18.2066 22.2871 18.6188 22.5117 19.1656 22.5117C19.6852 22.5117 20.0855 22.291 20.3668 21.8496C20.648 21.4082 20.7906 20.7734 20.7945 19.9453V19.5527ZM32.3715 19.9102C32.3715 20.7422 32.2172 21.4785 31.9086 22.1191C31.6 22.7598 31.1605 23.2539 30.5902 23.6016C30.0238 23.9453 29.3773 24.1172 28.6508 24.1172C27.9242 24.1172 27.2797 23.9512 26.7172 23.6191C26.1547 23.2832 25.7152 22.8047 25.3988 22.1836C25.0863 21.5625 24.9223 20.8496 24.9066 20.0449V19.5645C24.9066 18.7285 25.059 17.9922 25.3637 17.3555C25.6723 16.7148 26.1117 16.2207 26.682 15.873C27.2563 15.5254 27.9086 15.3516 28.6391 15.3516C29.3617 15.3516 30.0063 15.5234 30.5727 15.8672C31.1391 16.2109 31.5785 16.7012 31.891 17.3379C32.2074 17.9707 32.3676 18.6973 32.3715 19.5176V19.9102ZM30.2797 19.5527C30.2797 18.7051 30.1371 18.0625 29.852 17.625C29.5707 17.1836 29.1664 16.9629 28.6391 16.9629C27.6078 16.9629 27.0629 17.7363 27.0043 19.2832L26.9984 19.9102C26.9984 20.7461 27.1371 21.3887 27.4145 21.8379C27.6918 22.2871 28.1039 22.5117 28.6508 22.5117C29.1703 22.5117 29.5707 22.291 29.852 21.8496C30.1332 21.4082 30.2758 20.7734 30.2797 19.9453V19.5527ZM34.632 24V15.4688H37.3801C38.134 15.4688 38.8117 15.6406 39.4133 15.9844C40.0148 16.3242 40.4836 16.8066 40.8195 17.4316C41.1594 18.0527 41.3313 18.75 41.3352 19.5234V19.916C41.3352 20.6973 41.1691 21.3984 40.8371 22.0195C40.509 22.6367 40.0441 23.1211 39.4426 23.4727C38.8449 23.8203 38.177 23.9961 37.4387 24H34.632ZM36.6887 17.0566V22.418H37.4035C37.9934 22.418 38.4465 22.209 38.7629 21.791C39.0793 21.3691 39.2375 20.7441 39.2375 19.916V19.5469C39.2375 18.7227 39.0793 18.1016 38.7629 17.6836C38.4465 17.2656 37.9855 17.0566 37.3801 17.0566H36.6887Z" fill="#460B79"/>
<rect x="1" y="1" width="46" height="26" stroke="#460B79" stroke-width="2"/>
</svg>
